<svg width="39" height="40" viewBox="0 0 39 40" fill="none" xmlns="http://www.w3.org/2000/svg">
<g clip-path="url(#clip0_604_305)">
<path d="M19.5 0.98291C8.72625 0.98291 0 9.71404 0 20.4829C0 29.1003 5.58675 36.4079 13.3331 38.9835C14.3081 39.1672 14.6656 38.5643 14.6656 38.0459C14.6656 37.5828 14.6494 36.3559 14.6413 34.7309C9.217 35.9074 8.073 32.1147 8.073 32.1147C7.18575 29.864 5.90363 29.2628 5.90363 29.2628C4.13725 28.0538 6.04012 28.0782 6.04012 28.0782C7.99825 28.2147 9.02687 30.0867 9.02687 30.0867C10.7656 33.0685 13.5915 32.2073 14.7063 31.7084C14.8818 30.4474 15.3839 29.5878 15.9413 29.1003C11.6106 28.6128 7.059 26.9358 7.059 19.464C7.059 17.3353 7.81462 15.5965 9.06588 14.2315C8.8465 13.7392 8.18838 11.7567 9.2365 9.07054C9.2365 9.07054 10.8696 8.54729 14.599 11.0693C16.159 10.6354 17.8165 10.4209 19.474 10.4112C21.1315 10.4209 22.789 10.6354 24.349 11.0693C28.054 8.54729 29.6871 9.07054 29.6871 9.07054C30.7352 11.7567 30.0771 13.7392 29.8821 14.2315C31.1252 15.5965 31.8809 17.3353 31.8809 19.464C31.8809 26.9553 27.3228 28.6047 22.984 29.084C23.6665 29.669 24.3003 30.865 24.3003 32.6915C24.3003 35.3013 24.2759 37.3975 24.2759 38.0313C24.2759 38.5432 24.6171 39.1525 25.6165 38.9575C33.4181 36.3998 39 29.0873 39 20.4829C39 9.71404 30.2689 0.98291 19.5 0.98291Z" fill="white"/>
</g>
<defs>
<clipPath id="clip0_604_305">
<rect width="39" height="39" fill="white" transform="translate(0 0.5)"/>
</clipPath>
</defs>
</svg>
