<svg width="39" height="40" viewBox="0 0 39 40" fill="none" xmlns="http://www.w3.org/2000/svg">
<path d="M39 9.36783V31.97C39 33.439 37.8105 34.6285 36.3415 34.6285H30.1356V19.5615L19.5 27.5402L8.86438 19.5615V34.6301H2.6585C2.30924 34.6301 1.96341 34.5613 1.64076 34.4276C1.31811 34.2939 1.02497 34.0979 0.778082 33.8509C0.531197 33.6038 0.335407 33.3106 0.2019 32.9878C0.0683936 32.6651 -0.000212985 32.3192 4.96684e-07 31.97V9.36783C4.96684e-07 6.08046 3.75213 4.20358 6.38138 6.17633L8.86438 8.04021L19.5 16.0157L30.1356 8.03696L32.6186 6.17633C35.2463 4.20521 39 6.08046 39 9.36783Z" fill="white"/>
</svg>
