<svg width="39" height="40" viewBox="0 0 39 40" fill="none" xmlns="http://www.w3.org/2000/svg">
<g clip-path="url(#clip0_604_307)">
<path d="M33.2264 33.7345H27.4511V24.6849C27.4511 22.5269 27.4073 19.7498 24.4416 19.7498C21.4305 19.7498 20.9706 22.0979 20.9706 24.5256V33.7345H15.1954V15.125H20.7431V17.6616H20.8179C21.593 16.1991 23.478 14.6554 26.2941 14.6554C32.1457 14.6554 33.228 18.5066 33.228 23.5198L33.2264 33.7345ZM8.67262 12.5786C6.81362 12.5786 5.32025 11.0739 5.32025 9.223C5.32025 7.37375 6.81525 5.87063 8.67262 5.87063C10.5251 5.87063 12.0266 7.37375 12.0266 9.223C12.0266 11.0739 10.5235 12.5786 8.67262 12.5786ZM11.5684 33.7345H5.77688V15.125H11.5684V33.7345ZM36.1156 0.5H2.87788C1.287 0.5 0 1.75775 0 3.30962V36.6904C0 38.2439 1.287 39.5 2.87788 39.5H36.1107C37.7 39.5 39 38.2439 39 36.6904V3.30962C39 1.75775 37.7 0.5 36.1107 0.5H36.1156Z" fill="white"/>
</g>
<defs>
<clipPath id="clip0_604_307">
<rect width="39" height="39" fill="white" transform="translate(0 0.5)"/>
</clipPath>
</defs>
</svg>
