<svg width="24" height="24" viewBox="0 0 24 24" fill="none" xmlns="http://www.w3.org/2000/svg">
<g clip-path="url(#clip0_601_161)">
<path d="M18.144 13.067V10.933L16.55 12L18.144 13.067ZM19.42 14.261C19.4198 14.2888 19.4178 14.3165 19.414 14.344L19.409 14.372L19.398 14.425L19.388 14.456C19.383 14.472 19.378 14.487 19.371 14.503L19.357 14.533C19.3504 14.5475 19.3434 14.5619 19.336 14.576L19.317 14.606C19.2942 14.6422 19.2673 14.6758 19.237 14.706L19.211 14.731C19.1994 14.7415 19.1874 14.7515 19.175 14.761L19.146 14.783L19.136 14.791L12.354 19.313C12.2492 19.383 12.126 19.4204 12 19.4204C11.874 19.4204 11.7508 19.383 11.646 19.313L4.864 14.79L4.854 14.782C4.83115 14.7662 4.80943 14.7488 4.789 14.73L4.763 14.705L4.731 14.671L4.71 14.643C4.68371 14.6089 4.66124 14.572 4.643 14.533L4.629 14.502C4.62273 14.4866 4.61706 14.4709 4.612 14.455L4.602 14.425C4.598 14.407 4.594 14.389 4.592 14.371L4.586 14.343C4.58217 14.3155 4.58016 14.2878 4.58 14.26V9.739C4.58 9.711 4.582 9.684 4.586 9.656L4.591 9.629L4.602 9.575L4.612 9.545C4.63571 9.46479 4.67667 9.39073 4.732 9.328L4.763 9.294L4.789 9.269C4.80948 9.25023 4.83119 9.23286 4.854 9.217L4.864 9.209L11.646 4.688C11.7508 4.61809 11.874 4.58078 12 4.58078C12.126 4.58078 12.2492 4.61809 12.354 4.688L19.136 9.209L19.146 9.217L19.176 9.239L19.211 9.269C19.221 9.277 19.228 9.285 19.237 9.294C19.2675 9.32407 19.2944 9.35764 19.317 9.394L19.336 9.424C19.3435 9.43806 19.3505 9.45241 19.357 9.467L19.371 9.497C19.378 9.513 19.383 9.529 19.388 9.544L19.398 9.575C19.402 9.593 19.406 9.611 19.408 9.629L19.414 9.656C19.4179 9.6835 19.4199 9.71123 19.42 9.739V14.261ZM12 0C5.373 0 0 5.372 0 12C0 18.627 5.373 24 12 24C18.628 24 24 18.628 24 12C24 5.373 18.628 0 12 0ZM12 10.492L9.745 12L12 13.51L14.255 12L12 10.492ZM12.638 14.616V17.591L17.634 14.261L15.402 12.768L12.638 14.616ZM6.366 14.26L11.362 17.59V14.616L8.598 12.767L6.366 14.26ZM17.634 9.74L12.638 6.41V9.384L15.402 11.234L17.634 9.74ZM11.362 9.384V6.41L6.366 9.74L8.598 11.233L11.362 9.384ZM5.856 10.933V13.067L7.45 12L5.856 10.933Z" fill="white"/>
</g>
<defs>
<clipPath id="clip0_601_161">
<rect width="24" height="24" fill="white"/>
</clipPath>
</defs>
</svg>
