<svg width="24" height="24" viewBox="0 0 24 24" fill="none" xmlns="http://www.w3.org/2000/svg">
<g clip-path="url(#clip0_601_159)">
<path d="M1 0C0.734784 0 0.48043 0.105357 0.292893 0.292893C0.105357 0.48043 0 0.734784 0 1L0 23C0 23.063 0.007 23.124 0.018 23.184L0 23.199L0.025 23.225C0.128 23.668 0.525 24 1 24H23C23.2652 24 23.5196 23.8946 23.7071 23.7071C23.8946 23.5196 24 23.2652 24 23V1C24 0.734784 23.8946 0.48043 23.7071 0.292893C23.5196 0.105357 23.2652 0 23 0L1 0ZM1.707 1H22.289L20.289 3H3.707L1.707 1ZM23 1.705V22.293L21 20.293V3.705L23 1.705ZM1 1.707L3 3.707V20.199L1 22.199V1.707ZM4 4H20V20H4V4ZM7.537 7C6.531 7 6.027 7.535 6.027 8.605V10.902C6.027 11.302 5.843 11.502 5.473 11.502C5.40923 11.5006 5.34584 11.5122 5.2867 11.5361C5.22756 11.56 5.17391 11.5957 5.129 11.641C5.03989 11.7411 4.99357 11.8721 5 12.006C4.99721 12.0704 5.00717 12.1348 5.02931 12.1954C5.05145 12.2559 5.08533 12.3115 5.129 12.359C5.17391 12.4043 5.22756 12.44 5.2867 12.4639C5.34584 12.4878 5.40923 12.4994 5.473 12.498C5.843 12.498 6.027 12.698 6.027 13.098V15.395C6.027 16.465 6.531 17 7.537 17C7.673 17 7.785 16.95 7.871 16.852C7.95908 16.7557 8.00545 16.6284 8 16.498C8.00643 16.3641 7.96011 16.2331 7.871 16.133C7.8284 16.0874 7.77658 16.0515 7.71898 16.0275C7.66139 16.0035 7.59935 15.9921 7.537 15.994C7.161 15.994 6.973 15.795 6.973 15.394V13.098C6.973 12.638 6.873 12.275 6.676 12.006C6.775 11.868 6.849 11.706 6.898 11.521C6.948 11.338 6.973 11.132 6.973 10.902V8.605C6.973 8.205 7.161 8.005 7.537 8.005C7.59928 8.00702 7.66127 7.99576 7.71886 7.97196C7.77645 7.94817 7.82831 7.91239 7.871 7.867C7.95885 7.77014 8.00518 7.64267 8 7.512C8.00431 7.37876 7.95825 7.24879 7.871 7.148C7.82983 7.10005 7.77849 7.06188 7.72071 7.03628C7.66293 7.01068 7.60017 6.99828 7.537 7ZM16.463 7C16.3998 6.99828 16.3371 7.01068 16.2793 7.03628C16.2215 7.06188 16.1702 7.10005 16.129 7.148C16.0418 7.24879 15.9957 7.37876 16 7.512C15.9949 7.64265 16.0412 7.77008 16.129 7.867C16.1716 7.91257 16.2234 7.94854 16.281 7.9725C16.3386 7.99647 16.4006 8.00789 16.463 8.006C16.839 8.006 17.027 8.205 17.027 8.606V10.902C17.027 11.132 17.052 11.338 17.102 11.522C17.151 11.705 17.225 11.868 17.324 12.006C17.127 12.276 17.027 12.638 17.027 13.098V15.395C17.027 15.795 16.839 15.995 16.463 15.995C16.4007 15.993 16.3387 16.0042 16.2811 16.028C16.2236 16.0518 16.1717 16.0876 16.129 16.133C16.0399 16.2331 15.9936 16.3641 16 16.498C16 16.643 16.043 16.76 16.129 16.852C16.1702 16.8999 16.2215 16.9381 16.2793 16.9637C16.3371 16.9893 16.3998 17.0017 16.463 17C17.469 17 17.973 16.465 17.973 15.395V13.098C17.973 12.698 18.157 12.498 18.527 12.498C18.5894 12.4999 18.6514 12.4885 18.709 12.4645C18.7666 12.4405 18.8184 12.4046 18.861 12.359C18.9072 12.3129 18.9434 12.2577 18.9673 12.197C18.9912 12.1362 19.0023 12.0712 19 12.006C19.003 11.9389 18.9922 11.8719 18.9683 11.8091C18.9444 11.7463 18.9079 11.6891 18.861 11.641C18.8184 11.5954 18.7666 11.5595 18.709 11.5355C18.6514 11.5115 18.5894 11.5001 18.527 11.502C18.157 11.502 17.973 11.302 17.973 10.902V8.605C17.973 7.535 17.469 7 16.463 7ZM9.213 13C9.02472 13.0094 8.84722 13.0907 8.717 13.227C8.64648 13.2956 8.59082 13.3779 8.55349 13.4689C8.51616 13.5599 8.49795 13.6577 8.5 13.756C8.49946 13.8544 8.51853 13.9518 8.55611 14.0427C8.59368 14.1337 8.649 14.2162 8.71884 14.2854C8.78867 14.3547 8.87161 14.4094 8.96281 14.4462C9.05401 14.483 9.15165 14.5013 9.25 14.5C9.34835 14.5013 9.44599 14.483 9.53719 14.4462C9.62839 14.4094 9.71133 14.3547 9.78116 14.2854C9.851 14.2162 9.90632 14.1337 9.94389 14.0427C9.98147 13.9518 10.0005 13.8544 10 13.756C10.0022 13.6575 9.98405 13.5596 9.94671 13.4684C9.90938 13.3772 9.85365 13.2947 9.783 13.226C9.71502 13.153 9.63242 13.0951 9.54058 13.0562C9.44874 13.0173 9.34973 12.9981 9.25 13H9.213ZM11.963 13C11.7747 13.0094 11.5972 13.0907 11.467 13.227C11.3965 13.2956 11.3408 13.3779 11.3035 13.4689C11.2662 13.5599 11.2479 13.6577 11.25 13.756C11.2491 13.8543 11.2679 13.9518 11.3051 14.0428C11.3424 14.1338 11.3974 14.2165 11.467 14.286C11.619 14.429 11.797 14.5 12 14.5C12.0984 14.5013 12.196 14.483 12.2872 14.4462C12.3784 14.4094 12.4613 14.3547 12.5312 14.2854C12.601 14.2162 12.6563 14.1337 12.6939 14.0427C12.7315 13.9518 12.7505 13.8544 12.75 13.756C12.7522 13.6575 12.7341 13.5596 12.6967 13.4684C12.6594 13.3772 12.6036 13.2947 12.533 13.226C12.465 13.153 12.3824 13.0951 12.2906 13.0562C12.1987 13.0173 12.0997 12.9981 12 13H11.963ZM14.713 13C14.5247 13.0094 14.3472 13.0907 14.217 13.227C14.1465 13.2956 14.0908 13.3779 14.0535 13.4689C14.0162 13.5599 13.9979 13.6577 14 13.756C13.9991 13.8543 14.0179 13.9518 14.0551 14.0428C14.0924 14.1338 14.1474 14.2165 14.217 14.286C14.369 14.429 14.547 14.5 14.75 14.5C14.8484 14.5013 14.946 14.483 15.0372 14.4462C15.1284 14.4094 15.2113 14.3547 15.2812 14.2854C15.351 14.2162 15.4063 14.1337 15.4439 14.0427C15.4815 13.9518 15.5005 13.8544 15.5 13.756C15.5022 13.6575 15.4841 13.5596 15.4467 13.4684C15.4094 13.3772 15.3536 13.2947 15.283 13.226C15.215 13.153 15.1324 13.0951 15.0406 13.0562C14.9487 13.0173 14.8497 12.9981 14.75 13H14.713ZM3.613 21H20.293L22.293 23H1.613L3.613 21Z" fill="white"/>
</g>
<defs>
<clipPath id="clip0_601_159">
<rect width="24" height="24" fill="white"/>
</clipPath>
</defs>
</svg>
