<svg width="24" height="24" viewBox="0 0 24 24" fill="none" xmlns="http://www.w3.org/2000/svg">
<g clip-path="url(#clip0_601_139)">
<path d="M2.886 4.18C4.01198 2.86759 5.40869 1.81445 6.9802 1.09291C8.5517 0.37137 10.2608 -0.0014678 11.99 4.34259e-06C18.624 4.34259e-06 24 5.376 24 12.009C24 15.649 22.38 18.912 19.82 21.114L2.887 4.18H2.886ZM1.817 5.626L18.373 22.182C17.849 22.512 17.298 22.802 16.723 23.048L0.951 7.277C1.198 6.702 1.488 6.15 1.817 5.626ZM0.322 9.163L14.837 23.678C14.127 23.85 13.394 23.96 12.642 24L0 11.358C0.0393248 10.618 0.147119 9.88316 0.322 9.163ZM0.152 14.025L9.975 23.849C7.522 23.4299 5.25956 22.2598 3.49989 20.5001C1.74023 18.7404 0.570101 16.478 0.151 14.025H0.152Z" fill="white"/>
</g>
<defs>
<clipPath id="clip0_601_139">
<rect width="24" height="24" fill="white"/>
</clipPath>
</defs>
</svg>
