<svg width="24" height="24" viewBox="0 0 24 24" fill="none" xmlns="http://www.w3.org/2000/svg">
<path d="M6.49 19.04H6.26L5.13 17.9V17.67L6.86 15.96H8.06L8.21 16.11V17.31L6.5 19.04H6.49ZM5.13 6.31V6.1L6.26 4.97H6.49L8.2 6.68V7.88L8.05 8.03H6.85L5.13 6.31ZM15.09 15.4H13.44L13.3 15.27V11.44C13.3 10.76 13.03 10.24 12.2 10.21C11.78 10.21 11.3 10.21 10.77 10.23L10.7 10.31V15.27L10.56 15.41H8.9L8.77 15.27V8.73L8.9 8.59H12.6C12.9423 8.58868 13.2814 8.65496 13.598 8.78504C13.9146 8.91511 14.2025 9.10641 14.4449 9.34798C14.6874 9.58954 14.8798 9.87661 15.0111 10.1927C15.1424 10.5088 15.21 10.8477 15.21 11.19V15.27L15.08 15.41L15.09 15.4ZM6.72 12.96H0.14L0 12.82V11.18L0.14 11.04H6.72L6.86 11.18V12.82L6.72 12.96ZM23.86 12.96H17.28L17.14 12.82V11.18L17.28 11.04H23.86L24 11.18V12.82L23.86 12.96ZM11.05 6.55V1.64L11.19 1.5H12.84L12.98 1.64V6.54L12.84 6.68H11.19L11.05 6.55ZM11.05 22.36V17.46L11.19 17.32H12.84L12.98 17.45V22.36L12.84 22.5H11.19L11.05 22.36Z" fill="white"/>
</svg>
