<svg width="24" height="24" viewBox="0 0 24 24" fill="none" xmlns="http://www.w3.org/2000/svg">
<path d="M7.39409 7.31C7.09578 7.10987 6.81689 6.88221 6.56109 6.63C5.64809 5.72 5.18109 4.563 5.18109 3.062V2.487C6.69909 0.929 9.03909 0 11.8281 0C17.2221 0 20.3431 2.8 21.1131 6.74H16.2201C15.6801 5.186 14.3301 3.976 11.8681 3.976C9.44609 3.976 7.73209 5.252 7.39509 7.31H7.39409ZM4.68309 3.062C4.68309 6.298 6.71709 8.224 10.7891 9.239L15.1051 10.222C18.9591 11.092 21.3051 13.252 21.3051 16.772C21.3339 18.309 20.8261 19.808 19.8691 21.011C19.8691 17.5 18.0191 15.602 13.5591 14.461L9.32309 13.515C5.93009 12.755 3.31209 10.979 3.31209 7.155C3.29541 5.67541 3.77908 4.23341 4.68309 3.062ZM17.1801 16.484C16.8881 18.719 15.0881 19.979 12.4821 19.979C10.1681 19.979 8.43409 19.033 7.77909 16.989H2.69409C3.51809 21.44 7.22409 24 12.5191 24C15.3471 24 17.7961 23.13 19.3691 21.561V21.011C19.3691 19.351 18.9361 18.135 18.0271 17.195C17.7693 16.9305 17.4855 16.6927 17.1801 16.485V16.484Z" fill="white"/>
</svg>
